{
  "accessors": [
    {
      "bufferView": 2,
      "componentType": 5126,
      "count": 65533,
      "max": [
        2.050593376159668,
        6.596331596374512,
        2.6598503589630127
      ],
      "min": [
        -2.3590798377990723,
        0.09649088978767395,
        -2.5816965103149414
      ],
      "type": "VEC3"
    },
    {
      "bufferView": 2,
      "byteOffset": 786396,
      "componentType": 5126,
      "count": 65533,
      "max": [
        0.9999723434448242,
        0.999707818031311,
        0.999697744846344
      ],
      "min": [
        -0.9999334216117859,
        -0.9996759295463562,
        -0.9998683929443359
      ],
      "type": "VEC3"
    },
    {
      "bufferView": 3,
      "componentType": 5126,
      "count": 65533,
      "max": [
        0.999987781047821,
        0.9999961853027344,
        0.9999668598175049,
        1.0
      ],
      "min": [
        -0.9999938607215881,
        -0.9999794363975525,
        -0.999996542930603,
        -1.0
      ],
      "type": "VEC4"
    },
    {
      "bufferView": 1,
      "componentType": 5126,
      "count": 65533,
      "max": [
        0.9955353736877441,
        0.9977098703384399
      ],
      "min": [
        0.0023424625396728516,
        0.004462778568267822
      ],
      "type": "VEC2"
    },
    {
      "bufferView": 1,
      "byteOffset": 524264,
      "componentType": 5126,
      "count": 65533,
      "max": [
        0.9955353736877441,
        0.9977098703384399
      ],
      "min": [
        0.0023424625396728516,
        0.004462778568267822
      ],
      "type": "VEC2"
    },
    {
      "bufferView": 1,
      "byteOffset": 1048528,
      "componentType": 5126,
      "count": 65533,
      "max": [
        0.9955353736877441,
        0.9977098703384399
      ],
      "min": [
        0.0023424625396728516,
        0.004462778568267822
      ],
      "type": "VEC2"
    },
    {
      "bufferView": 1,
      "byteOffset": 1572792,
      "componentType": 5126,
      "count": 65533,
      "max": [
        0.9955353736877441,
        0.9977098703384399
      ],
      "min": [
        0.0023424625396728516,
        0.004462778568267822
      ],
      "type": "VEC2"
    },
    {
      "bufferView": 1,
      "byteOffset": 2097056,
      "componentType": 5126,
      "count": 65533,
      "max": [
        0.9955353736877441,
        0.9977098703384399
      ],
      "min": [
        0.0023424625396728516,
        0.004462778568267822
      ],
      "type": "VEC2"
    },
    {
      "bufferView": 0,
      "componentType": 5125,
      "count": 65538,
      "type": "SCALAR"
    },
    {
      "bufferView": 2,
      "byteOffset": 1572792,
      "componentType": 5126,
      "count": 35957,
      "max": [
        1.7741591930389404,
        5.636706352233887,
        2.3745861053466797
      ],
      "min": [
        -0.2922419309616089,
        4.742973327636719,
        0.8740408420562744
      ],
      "type": "VEC3"
    },
    {
      "bufferView": 2,
      "byteOffset": 2004276,
      "componentType": 5126,
      "count": 35957,
      "max": [
        0.999630868434906,
        0.9998663663864136,
        0.9997758269309998
      ],
      "min": [
        -0.9999949336051941,
        -0.9995633363723755,
        -0.9999891519546509
      ],
      "type": "VEC3"
    },
    {
      "bufferView": 3,
      "byteOffset": 1048528,
      "componentType": 5126,
      "count": 35957,
      "max": [
        0.9999638199806213,
        0.9999980926513672,
        0.9999589323997498,
        1.0
      ],
      "min": [
        -0.9999867081642151,
        -0.9994965195655823,
        -0.9999691247940063,
        -1.0
      ],
      "type": "VEC4"
    },
    {
      "bufferView": 1,
      "byteOffset": 2621320,
      "componentType": 5126,
      "count": 35957,
      "max": [
        0.970139741897583,
        0.9911038875579834
      ],
      "min": [
        0.35599851608276367,
        0.0073964595794677734
      ],
      "type": "VEC2"
    },
    {
      "bufferView": 1,
      "byteOffset": 2908976,
      "componentType": 5126,
      "count": 35957,
      "max": [
        0.970139741897583,
        0.9911038875579834
      ],
      "min": [
        0.35599851608276367,
        0.0073964595794677734
      ],
      "type": "VEC2"
    },
    {
      "bufferView": 1,
      "byteOffset": 3196632,
      "componentType": 5126,
      "count": 35957,
      "max": [
        0.970139741897583,
        0.9911038875579834
      ],
      "min": [
        0.35599851608276367,
        0.0073964595794677734
      ],
      "type": "VEC2"
    },
    {
      "bufferView": 1,
      "byteOffset": 3484288,
      "componentType": 5126,
      "count": 35957,
      "max": [
        0.970139741897583,
        0.9911038875579834
      ],
      "min": [
        0.35599851608276367,
        0.0073964595794677734
      ],
      "type": "VEC2"
    },
    {
      "bufferView": 1,
      "byteOffset": 3771944,
      "componentType": 5126,
      "count": 35957,
      "max": [
        0.970139741897583,
        0.9911038875579834
      ],
      "min": [
        0.35599851608276367,
        0.0073964595794677734
      ],
      "type": "VEC2"
    },
    {
      "bufferView": 0,
      "byteOffset": 262152,
      "componentType": 5125,
      "count": 35958,
      "type": "SCALAR"
    },
    {
      "bufferView": 2,
      "byteOffset": 2435760,
      "componentType": 5126,
      "count": 46404,
      "max": [
        2.4441118240356445,
        5.79871940612793,
        2.5048890113830566
      ],
      "min": [
        -2.445387840270996,
        -0.005728369578719139,
        -3.0280914306640625
      ],
      "type": "VEC3"
    },
    {
      "bufferView": 2,
      "byteOffset": 2992608,
      "componentType": 5126,
      "count": 46404,
      "max": [
        0.9998001456260681,
        0.9995613098144531,
        0.9997262358665466
      ],
      "min": [
        -0.9997588992118835,
        -0.9999810457229614,
        -0.9998857378959656
      ],
      "type": "VEC3"
    },
    {
      "bufferView": 3,
      "byteOffset": 1623840,
      "componentType": 5126,
      "count": 46404,
      "max": [
        0.9999808669090271,
        0.9999721050262451,
        0.9999006986618042,
        1.0
      ],
      "min": [
        -0.99983811378479,
        -0.9997920989990234,
        -0.9999702572822571,
        -1.0
      ],
      "type": "VEC4"
    },
    {
      "bufferView": 1,
      "byteOffset": 4059600,
      "componentType": 5126,
      "count": 46404,
      "max": [
        0.9925286769866943,
        0.993751049041748
      ],
      "min": [
        0.007214367389678955,
        0.008164644241333008
      ],
      "type": "VEC2"
    },
    {
      "bufferView": 1,
      "byteOffset": 4430832,
      "componentType": 5126,
      "count": 46404,
      "max": [
        0.9925286769866943,
        0.993751049041748
      ],
      "min": [
        0.007214367389678955,
        0.008164644241333008
      ],
      "type": "VEC2"
    },
    {
      "bufferView": 1,
      "byteOffset": 4802064,
      "componentType": 5126,
      "count": 46404,
      "max": [
        0.9925286769866943,
        0.993751049041748
      ],
      "min": [
        0.007214367389678955,
        0.008164644241333008
      ],
      "type": "VEC2"
    },
    {
      "bufferView": 1,
      "byteOffset": 5173296,
      "componentType": 5126,
      "count": 46404,
      "max": [
        0.9925286769866943,
        0.993751049041748
      ],
      "min": [
        0.007214367389678955,
        0.008164644241333008
      ],
      "type": "VEC2"
    },
    {
      "bufferView": 1,
      "byteOffset": 5544528,
      "componentType": 5126,
      "count": 46404,
      "max": [
        0.9925286769866943,
        0.993751049041748
      ],
      "min": [
        0.007214367389678955,
        0.008164644241333008
      ],
      "type": "VEC2"
    },
    {
      "bufferView": 0,
      "byteOffset": 405984,
      "componentType": 5125,
      "count": 46407,
      "type": "SCALAR"
    }
  ],
  "asset": {
    "extras": {
      "author": "designersamuel (https://sketchfab.com/designersamuel)",
      "license": "CC-BY-4.0 (http://creativecommons.org/licenses/by/4.0/)",
      "source": "https://sketchfab.com/3d-models/asian-style-dragon-e811ea18068a4656922b31394f894c39",
      "title": "Asian-style Dragon"
    },
    "generator": "Sketchfab-11.53.2",
    "version": "2.0"
  },
  "bufferViews": [
    {
      "buffer": 0,
      "byteLength": 591612,
      "name": "floatBufferViews",
      "target": 34963
    },
    {
      "buffer": 0,
      "byteLength": 5915760,
      "byteOffset": 591612,
      "byteStride": 8,
      "name": "floatBufferViews",
      "target": 34962
    },
    {
      "buffer": 0,
      "byteLength": 3549456,
      "byteOffset": 6507372,
      "byteStride": 12,
      "name": "floatBufferViews",
      "target": 34962
    },
    {
      "buffer": 0,
      "byteLength": 2366304,
      "byteOffset": 10056828,
      "byteStride": 16,
      "name": "floatBufferViews",
      "target": 34962
    }
  ],
  "buffers": [
    {
      "byteLength": 12423132,
      "uri": "scene.bin"
    }
  ],
  "extensionsRequired": [
    "KHR_materials_pbrSpecularGlossiness"
  ],
  "extensionsUsed": [
    "KHR_materials_pbrSpecularGlossiness"
  ],
  "images": [
    {
      "uri": "textures/material_0_diffuse.png"
    },
    {
      "uri": "textures/material_0_specularGlossiness.png"
    },
    {
      "uri": "textures/material_0_normal.png"
    },
    {
      "uri": "textures/material_0_occlusion.png"
    },
    {
      "uri": "textures/material_1_diffuse.png"
    },
    {
      "uri": "textures/material_1_specularGlossiness.png"
    },
    {
      "uri": "textures/material_1_normal.png"
    },
    {
      "uri": "textures/material_1_occlusion.png"
    }
  ],
  "materials": [
    {
      "alphaMode": "MASK",
      "doubleSided": true,
      "extensions": {
        "KHR_materials_pbrSpecularGlossiness": {
          "diffuseFactor": [
            1.0,
            1.0,
            1.0,
            1.0
          ],
          "diffuseTexture": {
            "index": 0
          },
          "glossinessFactor": 1.0,
          "specularFactor": [
            1.0,
            1.0,
            1.0
          ],
          "specularGlossinessTexture": {
            "index": 1,
            "texCoord": 1
          }
        }
      },
      "name": "material_0",
      "normalTexture": {
        "index": 2,
        "texCoord": 2
      },
      "occlusionTexture": {
        "index": 3
      }
    },
    {
      "doubleSided": true,
      "extensions": {
        "KHR_materials_pbrSpecularGlossiness": {
          "diffuseFactor": [
            1.0,
            1.0,
            1.0,
            1.0
          ],
          "diffuseTexture": {
            "index": 4
          },
          "glossinessFactor": 1.0,
          "specularFactor": [
            1.0,
            1.0,
            1.0
          ],
          "specularGlossinessTexture": {
            "index": 5
          }
        }
      },
      "name": "material_1",
      "normalTexture": {
        "index": 6
      },
      "occlusionTexture": {
        "index": 7
      }
    }
  ],
  "meshes": [
    {
      "name": "Object_0",
      "primitives": [
        {
          "attributes": {
            "NORMAL": 1,
            "POSITION": 0,
            "TANGENT": 2,
            "TEXCOORD_0": 3,
            "TEXCOORD_1": 4,
            "TEXCOORD_2": 5,
            "TEXCOORD_3": 6,
            "TEXCOORD_4": 7
          },
          "indices": 8,
          "material": 0,
          "mode": 4
        }
      ]
    },
    {
      "name": "Object_1",
      "primitives": [
        {
          "attributes": {
            "NORMAL": 10,
            "POSITION": 9,
            "TANGENT": 11,
            "TEXCOORD_0": 12,
            "TEXCOORD_1": 13,
            "TEXCOORD_2": 14,
            "TEXCOORD_3": 15,
            "TEXCOORD_4": 16
          },
          "indices": 17,
          "material": 0,
          "mode": 4
        }
      ]
    },
    {
      "name": "Object_2",
      "primitives": [
        {
          "attributes": {
            "NORMAL": 19,
            "POSITION": 18,
            "TANGENT": 20,
            "TEXCOORD_0": 21,
            "TEXCOORD_1": 22,
            "TEXCOORD_2": 23,
            "TEXCOORD_3": 24,
            "TEXCOORD_4": 25
          },
          "indices": 26,
          "material": 1,
          "mode": 4
        }
      ]
    }
  ],
  "nodes": [
    {
      "children": [
        1
      ],
      "matrix": [
        1.0,
        0.0,
        0.0,
        0.0,
        0.0,
        2.220446049250313e-16,
        -1.0,
        0.0,
        0.0,
        1.0,
        2.220446049250313e-16,
        0.0,
        0.0,
        0.0,
        0.0,
        1.0
      ],
      "name": "Sketchfab_model"
    },
    {
      "children": [
        2
      ],
      "name": "root"
    },
    {
      "children": [
        3
      ],
      "matrix": [
        1.0,
        0.0,
        0.0,
        0.0,
        0.0,
        2.220446049250313e-16,
        1.0,
        0.0,
        0.0,
        -1.0,
        2.220446049250313e-16,
        0.0,
        0.0,
        0.0,
        0.0,
        1.0
      ],
      "name": "GLTF_SceneRootNode"
    },
    {
      "children": [
        4
      ],
      "matrix": [
        0.009999999776482582,
        0.0,
        0.0,
        0.0,
        0.0,
        0.009999999776482582,
        0.0,
        0.0,
        0.0,
        0.0,
        0.009999999776482582,
        0.0,
        0.0,
        0.0,
        0.0,
        1.0
      ],
      "name": "RootNode.0_0"
    },
    {
      "children": [
        5,
        8
      ],
      "name": "dragon_asian.1_1"
    },
    {
      "children": [
        6,
        7
      ],
      "name": "_2"
    },
    {
      "mesh": 0,
      "name": "Object_6"
    },
    {
      "mesh": 1,
      "name": "Object_7"
    },
    {
      "children": [
        9
      ],
      "name": "_3"
    },
    {
      "mesh": 2,
      "name": "Object_9"
    }
  ],
  "samplers": [
    {
      "magFilter": 9729,
      "minFilter": 9987,
      "wrapS": 10497,
      "wrapT": 10497
    }
  ],
  "scene": 0,
  "scenes": [
    {
      "name": "Sketchfab_Scene",
      "nodes": [
        0
      ]
    }
  ],
  "textures": [
    {
      "sampler": 0,
      "source": 0
    },
    {
      "sampler": 0,
      "source": 1
    },
    {
      "sampler": 0,
      "source": 2
    },
    {
      "sampler": 0,
      "source": 3
    },
    {
      "sampler": 0,
      "source": 4
    },
    {
      "sampler": 0,
      "source": 5
    },
    {
      "sampler": 0,
      "source": 6
    },
    {
      "sampler": 0,
      "source": 7
    }
  ]
}
